<svg xmlns="http://www.w3.org/2000/svg" width="36" height="36" fill="none"><path fill="#5897D1" d="M33.12 18a15.1 15.1 0 1 1-30.24 0 15.12 15.12 0 1 1 30.24 0Z"/><path fill="#9FC5E6" d="M29.48 14.36a11.47 11.47 0 1 1-22.94.02 11.47 11.47 0 0 1 22.94-.02Z"/><path fill="#FF668C" d="M29.45 4.44v3.14a.74.74 0 0 1-.74.74h-5.25V3.69h5.25a.74.74 0 0 1 .74.75Z"/><path fill="#343A6E" d="M23.19 32.2a15.14 15.14 0 0 1-18.95-7.94l4.75-6.33a2.16 2.16 0 0 1 3.47 0l2.7 3.6L23.2 32.2Z"/><path fill="#EF487D" d="M28.74 5.43a.58.58 0 0 1-.58.58h-2.01a.58.58 0 0 0 0 1.15h.7a.58.58 0 0 1 0 1.16h-3.39V3.69h3.3a.58.58 0 0 1 .58.58.58.58 0 0 0 .58.58h.24a.58.58 0 0 1 .58.58Z"/><path fill="#F9DF73" d="M23.1 2.88a.5.5 0 0 0-.5.51v12.8h1.02V3.39a.5.5 0 0 0-.51-.5Z"/><path fill="#484B7F" d="M31.95 23.84a15.19 15.19 0 0 1-7.28 7.72A15.14 15.14 0 0 1 9.34 30.4l11.7-15.55a2.59 2.59 0 0 1 4.14 0l6.77 9Z"/><path fill="#343A6E" d="M23.1 13.8c-.39 0-.78.35-1.05 1.04l-6.93 18a15.03 15.03 0 0 1-5.78-2.45l11.7-15.55a2.57 2.57 0 0 1 2.07-1.04Z"/><path fill="#343A6E" d="M31.51 24.78a15.14 15.14 0 0 1-20.57 6.6l7.68-7.63c-1.2 3.1 2.2 3.91 5.71 2.62 3.23-1.2 3.57-2.46 7.18-1.59Z"/><path fill="#484B7F" d="M15.16 21.54c-1.8.06-3.57 1.13-4.71 1.13-1.76 0-3.84-1.56-1.46-4.74a2.17 2.17 0 0 1 3.47 0l2.7 3.6Z"/></svg>